<svg width="80" height="80" viewBox="0 0 80 80" fill="none" xmlns="http://www.w3.org/2000/svg">
<path d="M14.9609 20.0391H24.0234L24.6094 20.1172L24.9609 20.3125L25.2344 20.625L25.3906 21.0156L25.4297 21.4453V24.6875L25.3516 25.3125L25.1562 25.7031L24.8438 25.9766L24.4531 26.1328H23.9453L23.5938 25.9766L23.2812 25.7031L23.0859 25.3516L23.0078 25V22.4219H16.0547V57.5391H23.0078V29.9609L23.1641 29.4531L23.3984 29.1406L23.7891 28.9062L24.2578 28.8281L24.7266 28.9453L24.9609 29.1016L25.2344 29.4141L25.3906 29.8047L25.4297 30.625V34.375L25.4688 36.4453H54.5703V21.2109L54.6875 20.7422L54.9219 20.4297L55.1953 20.1953L55.5078 20.0781L55.8984 20.0391H64.8438L65.3906 20.0781L65.7812 20.2344L66.0938 20.5078L66.2891 20.8984L66.3281 21.0156L66.3672 21.5234V23.8672L66.4062 23.9844L66.8359 24.1406L67.1094 24.375L67.3047 24.6875L67.3828 24.9609V25.3125L67.2656 25.6641L67.0312 25.9766L66.7188 26.2109L66.4062 26.3281L66.3672 27.9297V53.5938L66.4062 53.6328H73.3203V26.3281H71.0547L70.6641 26.2109L70.3906 26.0156L70.1562 25.6641L70.0391 25.3516V24.9609L70.1953 24.5312L70.4688 24.2188L70.9375 23.9844L71.2891 23.9453H74.375L74.9219 24.0234L75.2734 24.2188L75.5469 24.5312L75.7031 24.9219L75.7422 25.8984V33.2812L77.0312 33.3203L77.6562 33.3594L78.1641 33.4766L78.7891 33.7891L79.2188 34.1406L79.5703 34.5703L79.8438 35.0781L80 35.5078V44.6094L79.9219 44.6484L79.6875 45.2344L79.2188 45.8594L78.8281 46.1719L78.2031 46.4844L77.7734 46.6016L77.4609 46.6406L75.7812 46.6797L75.7422 47.0703V49.2188L75.7031 55L75.5859 55.3906L75.3125 55.7422L74.9609 55.9375L74.6484 56.0156H66.3672V57.4609L66.3281 58.9453L66.2109 59.2969L65.9375 59.6484L65.5859 59.8438L65.2734 59.9219H55.5859L55.1562 59.7656L54.8438 59.4922L54.6484 59.1406L54.5703 58.7891V54.9219L54.6875 54.4531L54.9219 54.1406L55.1953 53.9062L55.5078 53.7891H56.0156L56.3281 53.9062L56.6406 54.1406L56.875 54.4922L56.9531 54.7266L56.9922 55.1953V57.5L63.9453 57.5391V22.4219H56.9922V44.8438L56.9531 50.1172L56.8359 50.4297L56.6016 50.7812L56.3281 50.9766L55.8984 51.0938H55.625L55.2344 50.9766L54.9219 50.7422L54.6875 50.3906L54.5703 49.9219V43.5156H25.4297L25.3906 58.9062L25.2734 59.2969L25 59.6484L24.6484 59.8438L24.3359 59.9219H14.6484L14.2188 59.7656L13.9062 59.4922L13.7109 59.1016L13.6328 58.75V56.0156H5.27344L4.84375 55.8594L4.53125 55.5859L4.33594 55.1953L4.25781 54.8438V46.6406H2.42188L1.875 46.5234L1.40625 46.3281L1.01562 46.0547L0.703125 45.7812L0.390625 45.3516L0.117188 44.8047L0 44.4922V35.4688L0.195312 35L0.507812 34.4531L0.859375 34.0625L1.13281 33.8281L1.60156 33.5547L2.07031 33.3984L2.77344 33.3203H4.25781V25.1172L4.375 24.6484L4.60938 24.3359L4.88281 24.1016L5.19531 23.9844L5.58594 23.9453H13.6328V21.2109L13.75 20.7422L13.9844 20.4297L14.2578 20.1953L14.5703 20.0781L14.9609 20.0391ZM6.67969 26.3281L6.64062 26.9141V53.6328L13.5547 53.6719L13.6328 53.6328V26.3281H6.67969ZM2.8125 35.7031L2.5 35.7812L2.38281 35.9375L2.34375 36.9141V43.8281L2.42188 44.1016L2.53906 44.2188L2.65625 44.2578L3.71094 44.2969H4.21875L4.25781 44.2578V35.7031H2.8125ZM75.7422 35.7031V44.2578H77.3438L77.5391 44.1406L77.6172 43.9844V36.0156L77.5 35.8203L77.4219 35.7422L77.1875 35.7031H75.7422ZM25.4297 38.8281L25.3906 39.2969L25.4297 41.1328L54.5312 41.1719L54.5703 41.1328V38.8281H25.4297Z" fill="#FFBB00"/>
</svg>
