<svg width="100" height="100" viewBox="0 0 100 100" fill="none" xmlns="http://www.w3.org/2000/svg">
<g clip-path="url(#clip0_233_534)">
<path d="M99.9982 70.8333C99.9883 78.5658 96.9122 85.9787 91.4445 91.4463C85.9768 96.914 78.5639 99.9901 70.8315 100C45.5065 100.488 31.9398 68.175 49.9982 50.4625V20.8333C50.8773 -6.70417 90.794 -6.66667 91.6648 20.8333V50.4625C96.9937 55.9057 99.9842 63.216 99.9982 70.8333ZM83.3315 70.8333C83.3208 68.2572 82.5145 65.7474 81.0228 63.6471C79.5311 61.5468 77.427 59.9587 74.9982 59.1V33.3333H66.6648V59.1C64.5099 59.8676 62.6075 61.2128 61.1654 62.9884C59.7233 64.7641 58.797 66.9021 58.4878 69.1686C58.1785 71.4351 58.4982 73.743 59.4119 75.8401C60.3256 77.9373 61.7982 79.7429 63.6687 81.0597C65.5392 82.3766 67.7356 83.1539 70.018 83.3069C72.3004 83.4598 74.581 82.9824 76.6104 81.9269C78.6399 80.8715 80.3402 79.2784 81.5255 77.322C82.7108 75.3655 83.3356 73.1209 83.3315 70.8333ZM33.3315 37.275L41.6648 42.0542V32.4708L37.5398 30.0833L41.6648 27.7208V18.1375L33.3315 22.8917V13.05L40.5482 5.83333L34.6565 -0.0625L29.1648 5.41667L23.6732 -0.0625L17.7815 5.83333L24.9982 13.05V22.8917L16.4565 17.9958L13.7857 8.14583L5.74401 10.325L7.77734 17.825L0.277344 19.8583L2.46484 27.9167L12.3107 25.2458L20.7898 30.0833L12.3148 34.9417L2.46484 32.2708L0.28151 40.3125L7.78151 42.3458L5.74818 49.8458L13.7898 52.025L16.4607 42.1792L24.9982 37.275V47.1208L17.7815 54.3375L23.6732 60.2292L29.1648 54.7375L34.6565 60.2292L40.5482 54.3375L33.3315 47.1208V37.275Z" fill="url(#paint0_linear_233_534)"/>
</g>
<defs>
<linearGradient id="paint0_linear_233_534" x1="50.1378" y1="-0.0625" x2="50.1378" y2="100.005" gradientUnits="userSpaceOnUse">
<stop stop-color="#FFBF00"/>
<stop offset="1" stop-color="#F2A50C"/>
</linearGradient>
<clipPath id="clip0_233_534">
<rect width="100" height="100" fill="white"/>
</clipPath>
</defs>
</svg>
