<svg width="100" height="100" viewBox="0 0 100 100" fill="none" xmlns="http://www.w3.org/2000/svg">
<g clip-path="url(#clip0_233_540)">
<path d="M100 22.9167C100 17.175 95.3292 12.5 89.5833 12.5H66.6667V0H0V87.5C0 94.3917 5.60833 100 12.5 100H54.1667C61.0583 100 66.6667 94.3917 66.6667 87.5V66.6667H100V22.9167ZM89.5833 20.8333C90.7292 20.8333 91.6667 21.7667 91.6667 22.9167V29.1667H66.6667V20.8333H89.5833ZM58.3333 87.5C58.3333 89.7958 56.4667 91.6667 54.1667 91.6667H12.5C10.2 91.6667 8.33333 89.7958 8.33333 87.5V75H58.3333V87.5ZM58.3333 66.6667H8.33333V8.33333H58.3333V66.6667ZM66.6667 58.3333V37.5H91.6667V58.3333H66.6667ZM24.6875 47.6042L15.5958 38.1542L21.375 32.15L30.6083 41.7375L45.6667 26.3083L51.4917 32.2667L36.4625 47.6667L36.45 47.6833C33.35 50.7833 27.875 50.7917 24.6875 47.6042ZM41.6667 87.5H25V79.1667H41.6667V87.5Z" fill="url(#paint0_linear_233_540)"/>
</g>
<defs>
<linearGradient id="paint0_linear_233_540" x1="50" y1="0" x2="50" y2="100" gradientUnits="userSpaceOnUse">
<stop stop-color="#FFBF00"/>
<stop offset="1" stop-color="#F2A50C"/>
</linearGradient>
<clipPath id="clip0_233_540">
<rect width="100" height="100" fill="white"/>
</clipPath>
</defs>
</svg>
