<svg width="100" height="100" viewBox="0 0 100 100" fill="none" xmlns="http://www.w3.org/2000/svg">
<g clip-path="url(#clip0_233_532)">
<path d="M100 66.6667V79.1667H95.8333V91.6667H87.5V100H75V79.1667H25V100H12.5V91.6667H4.16667V79.1667H0V66.6667H4.16667V54.1667H12.5V45.8333H25V66.6667H75V45.8333H87.5V54.1667H95.8333V66.6667H100ZM35.0958 37.5H47.9167L42.0417 58.3333H47.0375L68.1125 26.6917C69.775 24.1833 67.9792 20.8333 64.9708 20.8333H52.2333L60.4167 0H42.4875L31.4167 32.5417C30.6708 35.0083 32.5167 37.5 35.0958 37.5Z" fill="url(#paint0_linear_233_532)"/>
</g>
<defs>
<linearGradient id="paint0_linear_233_532" x1="50" y1="0" x2="50" y2="100" gradientUnits="userSpaceOnUse">
<stop stop-color="#FFBF00"/>
<stop offset="1" stop-color="#F2A50C"/>
</linearGradient>
<clipPath id="clip0_233_532">
<rect width="100" height="100" fill="white"/>
</clipPath>
</defs>
</svg>
