<svg width="80" height="80" viewBox="0 0 80 80" fill="none" xmlns="http://www.w3.org/2000/svg">
<path d="M36.0547 4.6875H37.7734L40.9375 5.03906L45.7422 5.58594L46.4844 5.70312L46.875 5.85938L47.0703 6.01562L47.3438 6.44531L47.3828 6.60156V7.14844L47.1484 7.61719L46.8359 7.89062L46.4062 8.04688H45.9766L43.5156 7.77344L38.7109 7.22656L38.4375 7.1875L38.3984 7.77344L38.2422 9.25781V9.57031L53.2812 12.8125L56.1719 13.4375L57.3828 13.7109L57.9688 13.9453L58.3984 14.2578L58.7109 14.5703L59.0234 15.0781L59.1797 15.4688L59.2578 15.8203V16.6016L59.1016 17.1484L58.8281 17.6562L58.3984 18.2031L57.8906 18.7891L57.5781 19.1797L57.1484 19.6875L56.7969 20.1172L56.3672 20.625L55.9375 21.1719L55.5859 21.5625L55.4297 21.7578L55.4688 21.9141L56.6797 23.125L56.9141 23.3203L57.0703 23.4766V23.5547L57.2266 23.6328L59.9609 26.3672L60.2734 26.6406L63.9453 30.3125L64.2578 30.5859V30.6641L64.4141 30.7422L64.5312 30.8594L64.6875 30.7812L65.0391 30.4297L65.3125 30.1172L65.7812 29.6484L65.8203 29.5703H65.8984L65.9766 29.4141L66.4062 28.9844L66.4453 28.9062H66.5234V28.8281H66.6016L66.4844 28.5547L66.0547 27.9297L65.7031 27.4609L64.6094 26.3672L64.2969 26.0938L62.6953 24.4922L62.4609 24.2969L62.1875 23.9844L61.9141 23.5938L61.6797 23.125L61.5234 22.5781L61.4844 22.3828V21.7188L61.6406 21.0156L61.9531 20.3906L62.2656 19.9609L62.5391 19.6875L63.0469 19.2969L63.8672 18.6719L64.5312 18.2031L65.1172 17.9297L65.7031 17.8125H66.5625L67.1875 17.9688L67.7344 18.2422L68.125 18.5547L68.3984 18.8281L68.7891 19.4531L69.2969 20.3516L69.8438 21.2891L70.3516 22.1875L71.1328 23.5156L71.5234 23.9453L71.7969 24.2578L72.1484 24.6484V24.7266H72.2266L72.5781 25.1562L73.0469 25.6641L73.3594 26.0938L73.4766 26.3281L73.5156 26.5234L73.4766 27.0312L73.2812 27.3828L73.2031 27.5H73.125V27.5781L72.7734 27.7734L72.5781 27.8516H72.0703L71.6797 27.6953L71.3281 27.3828L70.9766 26.9531L70.3906 26.3281L70.0391 25.8984L69.9219 25.8594L69.4141 26.25L68.7109 26.7969L68.4375 26.9922H68.3594L68.9453 27.8516L69.3359 28.3984L69.8438 29.1406L70.3516 29.8438L70.9766 30.7422L71.9141 32.0703L72.4609 32.8516L72.9297 33.5156L73.0859 33.7109V33.7891H73.1641L73.3594 33.9844L73.75 34.1406H74.375L74.8438 33.9062L75.1172 33.5938L75.2734 33.1641L75.625 30.8203L75.7812 29.8047L76.0156 29.3359L76.3281 29.0625L76.7578 28.9062H77.1484L77.5781 29.0625L77.8906 29.3359L78.125 29.7656V30.5469L77.8516 32.3828L77.6562 33.6719L77.4609 34.2969L77.1484 34.9219L76.875 35.2734L76.5234 35.6641L75.9766 36.0547L75.4297 36.3281L74.7656 36.5234L74.2578 36.6016H73.9062L73.3203 36.5234L72.6953 36.3281L72.0703 36.0156L71.5625 35.625L71.1719 35.1953L70.6641 34.4922L69.0234 32.1484L68.6328 31.6016L68.2031 30.9766L68.0469 30.7812L67.7734 31.0156L67.2266 31.6406H67.1484L67.0703 31.7969L66.5234 32.3438L66.25 32.6562L65.7812 33.125L65.7422 33.2031H65.6641L65.5859 33.3594L65.0391 33.9062L64.7656 34.2188L64.2969 34.6875L64.0234 35L63.5547 35.4688L63.2812 35.7812L62.7344 36.3281L62.6562 36.4453L62.6953 36.875L63.2812 39.7266L64.2188 44.2578L64.8828 47.4219L65 48.125V48.5938L64.8438 49.2578L64.5312 49.8828L64.1016 50.3516L63.8281 50.5859L63.4375 50.8203L62.8516 51.0156L62.4219 51.0547L62.8906 53.3984L63.0859 54.6484L63.1641 55.5078V57.6953L63.0859 58.5156L62.8906 59.8047L62.3828 62.5391L61.9141 65L61.3281 68.0859L60.8203 70.7812L60.5078 72.3828L60.4297 72.6953H62.2266L63.0859 72.7734L63.8281 72.9688L64.4531 73.2422L65.0781 73.5938L65.625 74.0234L66.1328 74.5312L66.6016 75.1953L66.9922 75.9375L67.2266 76.6406L67.3438 77.2266L67.3828 77.6562V78.0469L67.3047 78.4766L67.1094 78.9453L66.8359 79.2969L66.4844 79.6094L66.0938 79.8047L65.8203 79.9219H54.1797V79.8438L53.8281 79.7656L53.2031 79.4531L52.6953 78.9844L52.3438 78.4766L52.1094 77.9297L52.0312 77.5781V76.7578L52.2656 75.6641L52.6172 74.1016L52.6953 73.4766L52.8125 68.9844L52.8906 68.5156L53.0859 68.1641L53.3984 67.8906L53.6328 67.7734L53.8281 67.7344H54.2578L54.6484 67.8906L54.9609 68.1641L55.1562 68.4766L55.2344 68.9062L55.1562 72.3828L55.1172 72.6953H58.0078L58.0469 72.3828L58.7891 68.4766L59.6094 64.1406L60.3516 60.1953L60.625 58.6328L60.7422 57.5V55.6641L60.625 54.5703L60.4297 53.4375L59.9609 51.0938V50.9375L55 50.5859L54.3359 50.5078L55.1953 54.7656L55.3906 56.0547L55.4688 56.8359V60.0781L55.3906 62.8906L55.3516 63.6719L55.1953 64.0625L54.8828 64.4141L54.5703 64.5703L54.4141 64.6094H53.8672L53.5156 64.4531L53.2422 64.2188L53.0469 63.8672L52.9688 63.5547V62.6562L53.0469 59.5312V57.0703L52.9688 56.2109L52.7344 54.8047L51.9531 50.8984L51.8359 50.3516L50.2734 50.2344L49.6875 50.1172L49.1406 49.8828L48.6719 49.5312L48.3984 49.2578L48.0469 48.7109L47.8516 48.2031L47.7344 47.5391L47.1094 41.25L46.9531 40.5859L46.6797 40.0781L46.3281 39.6875L45.9375 39.4141L45.4688 39.2188L44.0625 38.75L41.6406 37.9688L40.0391 37.4609L38.75 37.0312L38.2812 36.7969L37.8516 36.4453L37.5781 36.1328L37.3047 35.7031L37.1094 35.1562L37.0312 34.6484V34.1406L37.0703 33.9062L35.8984 33.3203L34.8047 32.8125L33.2812 32.0703L32.3828 31.6406L31.0547 31.0156L30.625 30.7422L30.3906 30.4297L30.2344 30V29.7266L30.3906 29.2969L30.625 28.9844L30.9766 28.75L31.2109 28.6719H31.6406L32.1875 28.8672L33.0078 29.2578L33.6328 29.5703L35.5859 30.5078L36.6406 31.0156L37.4609 31.4062L37.6172 31.4453L37.8125 30.4297L38.2422 28.4766L38.6719 26.4453L38.8672 25.5469L38.4766 25.4688L36.6797 24.9219L34.8047 24.375L32.1484 23.5938L25 21.4844L20.5078 20.1562L17.3438 19.2188H17.2656L16.7969 20.3516L16.4453 21.1719V21.3281L17.3438 21.7578L18.5547 22.3438L19.4531 22.7734L21.4062 23.7109L22.7344 24.3359L24.1016 25L25 25.4297L27.0312 26.4062L27.3438 26.6406L27.5781 26.9141L27.6953 27.1875V27.8125L27.5 28.2031L27.3047 28.3984L27.1094 28.5547L26.7578 28.6719H26.2891L25.8984 28.5547L25.2734 28.2422L23.8281 27.5391L22.7344 27.0312L20.8984 26.1328L20 25.7031L19.0234 25.2344L17.0703 24.2969L15.7422 23.6719L14.6094 23.125L14.0625 22.9297L8.98438 21.4844L6.67969 20.8203L4.60938 20.2344L3.94531 20L3.47656 19.7266L3.04688 19.375L2.69531 18.9844L2.38281 18.5156L2.1875 18.0469L2.03125 17.3438V16.6406L2.14844 16.0547L2.34375 15.5469L2.69531 14.8828L3.08594 14.3359L3.39844 13.9453L3.71094 13.6719L4.10156 13.3203L4.6875 12.9297L5.3125 12.6172L5.9375 12.3828L6.64062 12.2266L6.95312 12.1875H8.24219L8.94531 12.3047L9.76562 12.5781L10.5078 12.9297L11.3281 13.3984L12.3047 13.9453L13.2031 14.4531L14.2578 15.0391L15.0781 15.5078L16.0547 16.0547L16.9531 16.5625L17.6562 16.7969L19.6875 17.3828L20.5859 17.6562L29.2188 20.1953L30.1172 20.4688L31.9922 21.0156L37.5391 22.6562L38.75 23.0078L39.4531 23.2031L39.5312 22.9688L39.7656 22.5781L40.1953 22.1094L40.7812 21.7188L41.3281 21.5234L41.5625 21.4844H42.3828L43.0078 21.6406L44.1016 22.0312L45.3906 22.4609L46.6016 22.8906L47.8906 23.3203L49.5703 23.9062L50.2344 24.1406L50.3906 24.0625L50.7422 23.6328L51.1719 23.125L51.5234 22.6953L51.9531 22.1875L52.1484 21.9141H52.2266L52.3047 21.7578L52.7344 21.25L52.9297 20.9766H53.0078L53.0859 20.8203L53.4375 20.3906L53.8672 19.8828L54.2188 19.4531L54.6484 18.9453L55.1562 18.3203L55.625 17.7734L55.9375 17.3828L56.3672 16.875L56.6406 16.5234L56.8359 16.25V16.0938L56.25 15.9375L48.2812 14.2188L39.2188 12.2656L36.875 11.7578L35.3125 11.8359L33.4766 11.9531H33.0469V12.2266L32.8516 12.8516L32.5781 13.3594L32.2656 13.75L31.8359 14.1406L31.4453 14.375L30.8203 14.6094L30.1562 14.7266H27.8516L27.2266 14.6094L26.6406 14.375L26.2109 14.1016L25.7422 13.6719L25.4688 13.2812L25.1562 12.6562L25.0391 12.2266L25 11.9922V9.41406L25.1172 8.67188L25.3125 8.04688L25.625 7.38281L25.9375 6.91406L26.4062 6.36719L26.875 5.9375L27.4609 5.54688L28.0469 5.27344L28.6719 5.07812L29.2969 4.96094L30.7422 4.88281L35.0391 4.72656L36.0547 4.6875ZM35.9375 7.07031L30 7.30469L29.2578 7.38281L28.75 7.57812L28.3203 7.85156L27.8906 8.28125L27.5781 8.82812L27.4219 9.33594L27.3828 9.60938V11.7578L27.5781 12.1484L27.8516 12.3047L28.4375 12.3438H30L30.3125 12.2656L30.5859 12.0312L30.6641 11.9141L30.7812 11.1719L30.9375 10.7422L31.1719 10.3516L31.4453 10.0781L31.875 9.80469L32.1875 9.6875L32.7734 9.60938L35.3516 9.45312L35.7812 9.41406L35.8203 9.375L36.0547 7.26562L36.0156 7.07031H35.9375ZM7.07031 14.5703L6.5625 14.6875L5.9375 14.9609L5.54688 15.2344L5.15625 15.5859L4.76562 16.0547L4.49219 16.6016L4.41406 16.8359V17.1484L4.64844 17.6172L5 17.8516L6.17188 18.2031L8.24219 18.7891L13.9844 20.4297H14.1797L14.8438 18.8281L15.0391 18.3594L15 18.2031L13.9453 17.6172L13.125 17.1484L12.1484 16.6016L11.25 16.0938L9.29688 15L8.71094 14.7266L8.125 14.5703H7.07031ZM65.9375 20.1953L65.5469 20.3906L65.1172 20.7422L64.1797 21.4453L63.9453 21.6797L63.8672 21.9141L63.9062 22.2656L64.0625 22.5L65.8984 24.3359H65.9766V24.4141H66.0547V24.4922H66.1328V24.5703H66.2109L66.2891 24.7266L66.6016 25L66.7969 25.1953L66.9531 25.1172L67.2656 24.8828L67.7734 24.4922L68.4375 23.9844L68.5547 23.8672L68.2031 23.2031L67.6562 22.2656L67.0312 21.1719L66.6016 20.4297L66.4062 20.2344L66.3281 20.1953H65.9375ZM53.7891 23.6719L53.3594 24.2188L52.8906 24.7656L52.5391 25.1953L52.3828 25.3906V25.4688L52.3047 25.5078L55.5859 28.7891L55.7422 28.8281L57.3828 27.1875L57.1484 26.9141L55.625 25.3906H55.5469L55.4688 25.2344H55.3906L55.3125 25.0781L55.0781 24.8828L53.8672 23.6719H53.7891ZM41.8359 23.8672L41.6406 24.0625L41.3281 25.4688L40.7031 28.3594L39.7656 32.7344L39.4141 34.4141L39.4531 34.6484L39.6094 34.8047L41.0156 35.2734L42.3828 35.7031L43.6719 36.1328L45.7812 36.7969L46.6406 37.1094L47.2656 37.4219L47.7344 37.7734L48.125 38.125L48.3984 38.3984L48.8281 39.0234L49.1406 39.6484L49.375 40.3516L49.4922 41.0547L50.0781 47.0312L50.1953 47.6953L50.3125 47.8125L50.3906 47.8516L61.6406 48.6719H62.4219L62.5781 48.4766V48.0859L61.5625 43.1641L60.9766 40.3906L60.5469 38.2812L60.2344 36.7969L60.1172 36.6016L56.25 32.7344H56.1719L56.0938 32.5781H56.0156L55.9375 32.4219H55.8594L55.7812 32.2656H55.7031L55.625 32.1094H55.5469L55.4688 31.9531L55.1562 31.6797L50.2734 26.7969L50.0781 26.6406L49.7266 26.4844L47.1094 25.5859L42.8125 24.1016L42.1094 23.8672H41.8359ZM59.0234 28.8672L57.8906 30V30.0781L57.7344 30.1562L57.4219 30.4688L57.4609 30.6641L57.9297 31.0938L61.0547 34.2188H61.1328L61.2109 34.375L61.3672 34.3359V34.2578H61.4453L61.7188 33.9453L62.2656 33.3984L62.5391 33.0859L62.8906 32.7344V32.5781L62.6562 32.3828L62.3828 32.0703L62.1875 31.9141L59.7266 29.4531H59.6484L59.5703 29.2969L59.2578 29.0234L59.1016 28.8672H59.0234ZM54.8828 75.0781L54.7656 75.4297L54.4141 76.9531V77.3047L54.6094 77.5L54.6875 77.5391H64.9609L64.8828 77.1484L64.6484 76.5625L64.375 76.1719L64.0234 75.7812L63.6328 75.5078L63.0859 75.2344L62.6172 75.1172L62.2656 75.0781H54.8828Z" fill="#FFBB00"/>
<path d="M53.7891 0H54.0234V0.078125L54.2969 0.117188L54.9609 0.3125L55.6641 0.390625L56.3672 0.3125L57.7344 0.078125H58.75L59.7266 0.273438L60.4297 0.507812L61.0547 0.78125L61.6406 1.13281L62.1484 1.52344L62.5391 1.875L62.8906 2.30469L63.2031 2.69531L63.5547 3.16406L63.8672 3.55469L64.1406 3.82812L64.2969 3.90625L64.7266 3.24219L65.1172 2.73438L65.7031 2.10938L66.1328 1.71875L66.7188 1.28906L67.4219 0.859375L68.1641 0.507812L69.1016 0.195312L69.6484 0.078125H69.7656V0H72.1484L72.3047 0.078125L73.0469 0.273438L73.7109 0.507812L74.3359 0.820312L74.9219 1.17188L75.3906 1.52344L75.8594 1.95312L76.0938 2.14844L76.4453 2.57812L76.8359 3.08594L77.1875 3.67188L77.5391 4.41406L77.8516 5.35156L78.0469 6.32812L78.0859 6.64062V8.04688L77.9297 9.02344L77.6953 9.84375L77.4219 10.5469L77.1094 11.1719L76.7969 11.7188L76.3672 12.3047L76.0547 12.6953L75.7031 13.0859L75 13.7891L74.5703 14.1406L74.0625 14.5312L73.8281 14.6875L74.0234 14.8438L74.7266 15.2734L75.5469 15.8203L76.1719 16.3281L76.4062 16.5234V16.6016L76.5625 16.6797L76.8359 16.9922L77.2656 17.5391L77.6172 18.0859L78.0078 18.8281L78.2812 19.5703L78.4766 20.2734L78.5938 21.0156L78.6328 21.5234V22.0312L78.5547 22.9688L78.2812 24.8438L78.1641 25.2344L77.9297 25.5859L77.7344 25.7422L77.3828 25.8984L76.9531 25.9375L76.6406 25.8594L76.4062 25.7422L76.1719 25.5469L75.9375 25.1562L75.8984 25.0391V24.375L76.1719 22.4219L76.2109 21.9922V21.6016L76.0938 20.7422L75.8984 20.0781L75.625 19.4531L75.2344 18.8281L74.8438 18.3984L74.6484 18.2031L74.2578 17.8516L73.4766 17.3438L72.6562 16.8359L71.9141 16.3672L71.2891 15.9766L70.8984 16.0547L69.8828 16.25L69.5703 16.2891H68.4375L67.6562 16.1719L66.9141 15.9375L66.1719 15.5859L65.5078 15.1172L64.9609 14.6094L64.6094 14.1797L64.2188 13.6328L63.7891 12.8125L63.5547 12.2266L63.2422 11.1328V11.0156L62.8516 10.8984L61.875 10.5078L60.7812 10.1562L59.5312 9.84375L58.4375 9.64844L56.5625 9.41406L51.0938 8.78906L50.5078 8.67188L50.2734 8.51562L50.0781 8.32031L49.9219 8.125L49.8047 7.8125V7.34375L49.9609 6.95312L50.1562 6.67969L50.5078 6.44531L50.7422 6.36719H51.0938L53.3203 6.60156L57.0703 7.03125L58.6328 7.22656L59.9609 7.46094L61.0938 7.73438L62.1484 8.04688L62.8125 8.28125L63.0469 8.35938L63.1641 7.26562L63.3594 6.21094L62.8906 5.89844L62.4609 5.54688L61.9141 5L61.5234 4.49219L60.9766 3.75L60.5078 3.28125L60.0781 3.00781L59.4922 2.73438L58.9844 2.57812L58.6328 2.5H57.9297L56.25 2.77344L55.5078 2.8125L54.7266 2.73438L53.9453 2.53906L53.3203 2.30469L52.9297 1.95312L52.7344 1.5625L52.6953 1.40625V1.09375L52.8516 0.664062L53.0859 0.351562L53.3594 0.15625L53.7891 0ZM70.5859 2.34375L69.8047 2.46094L68.9844 2.73438L68.3984 3.04688L68.4766 3.20312L68.9844 3.55469L69.6875 4.0625L70.3516 4.53125L71.7578 5.54688L72.4219 6.01562L73.125 6.52344L73.9062 7.07031L74.6094 7.57812L75.2734 8.04688L75.5078 8.24219H75.625L75.7031 7.8125V6.875L75.5859 6.09375L75.3125 5.27344L75 4.64844L74.7266 4.21875L74.2969 3.75L73.9453 3.39844L73.4375 3.04688L72.8516 2.73438L72.3438 2.53906L71.6406 2.38281L71.25 2.34375H70.5859ZM66.5625 4.76562L66.2109 5.39062L65.8203 6.36719L65.5859 7.30469L65.4688 8.04688L65.4297 8.63281V9.375L65.5078 10.1562L65.7031 11.0938L65.8594 11.5625L66.1328 12.1484L66.4062 12.6172L66.7969 13.0859H66.875V13.1641L67.3828 13.5156L67.7734 13.7109L68.1641 13.8281L68.6328 13.9062H69.4141L70.1172 13.7891L71.0547 13.4766L71.7188 13.1641L72.5 12.6953L72.9688 12.3438L73.3984 11.9922L73.8281 11.6016V11.5234L73.9453 11.4844L74.2188 11.1719L74.6875 10.5859L74.4922 10.3906L73.8672 9.92188L73.3594 9.57031L72.8125 9.17969L72.1094 8.67188L70.7812 7.73438L70.0781 7.22656L69.4141 6.75781L68.7109 6.25L68.0469 5.78125L67.3438 5.27344L66.7969 4.88281L66.6406 4.76562H66.5625Z" fill="#FFBB00"/>
</svg>
