<svg width="80" height="80" viewBox="0 0 80 80" fill="none" xmlns="http://www.w3.org/2000/svg">
<path d="M63.2812 12.6172L64.1016 12.6953L64.7266 12.8906L65.3516 13.2031L65.8203 13.5547L66.0938 13.7891L66.4453 14.2188L66.7969 14.7656L67.0312 15.3516L67.1875 16.0547V16.9922L67.0703 17.5781L66.8359 18.2031L66.5234 18.75L66.25 19.1016L66.1719 19.2188H66.0938L66.0156 19.375L65.4688 19.8047L64.9219 20.1172L64.7266 20.1953L64.7656 20.6641L64.8438 21.5625V23.9062L64.7656 24.6875L64.5703 25.5859L64.2969 26.4062L64.0234 27.0312L63.6719 27.6562L63.2031 28.3203L62.7344 28.8672L62.2266 29.375L62.3828 29.5312L62.9297 29.9219L63.3594 30.3125L63.6719 30.5859L63.9844 30.8984L64.3359 31.3281L64.8438 31.9922L65.3125 32.7734L65.625 33.3984L65.9375 34.1406L66.2109 35.0391L66.4062 35.9766L66.5234 37.1094V37.9688L66.4062 39.2578L66.1719 40.9375L65.8594 42.5781L65.5078 44.0234L65.1172 45.4297L64.6484 46.8359L64.2188 48.0469L63.9062 48.8281L63.6328 49.1797L63.4375 49.3359L63.0859 49.4922H62.5391L62.1484 49.3359L61.9531 49.1797L61.7188 48.8281L61.6016 48.5156V48.1641L61.875 47.3438L62.1484 46.6406L62.6953 45.0391L63.0469 43.8672L63.3594 42.6172L63.7109 40.9375L63.9453 39.375L64.0625 38.3203V36.7578L63.9062 35.8203L63.6719 35L63.3203 34.1797L62.9297 33.4766L62.5391 32.9297L62.1094 32.4219L61.7578 32.0703L61.2109 31.6406L60.625 31.25L59.9219 30.8984H59.6875L58.9453 31.1328L58.2031 31.2891L57.6172 31.3672H56.1719L55.7031 31.3281L57.5391 32.0312L58.1641 32.3438L58.7109 32.7344L59.2578 33.2812L59.6875 33.9062L60 34.5703L60.1953 35.2344L60.2734 35.7031V36.5234L60.1172 37.3438L59.8828 37.9688L59.6094 38.4766L59.2969 38.9062L58.9453 39.2969L58.5547 39.6484L57.9297 40.0391L57.3047 40.3125L56.7188 40.4688L56.2891 40.5469H55.3125L54.5703 40.3906L53.7891 40.0781L52.8125 39.5703L52.0312 39.1406L52.1484 40.8203V42.5L52.0312 43.75L51.8359 44.8047L51.5625 45.7812L51.1719 46.7578L50.8594 47.3828L50.5859 47.8516L50.2734 48.3203L49.9609 48.75L49.4531 49.375L49.3359 49.5312H49.2578L49.1797 49.6875L48.5938 50.2734L48.6328 50.4297L49.1016 50.9766L49.7266 51.6016L50.1562 51.9531L50.7812 52.4219L51.5234 52.8516L52.1094 53.1641L53.2031 53.5938L54.2188 53.9062L55.9766 54.2969L57.2656 54.5312L57.8906 54.6094H58.2031L58.75 53.7109L59.2969 52.7734L59.5703 52.4219L59.9219 52.1875L60.2344 52.1094H60.5469L60.8984 52.2266L61.1328 52.3828L61.3281 52.5781L61.4844 52.8125L61.5625 53.0469V53.5938L61.3672 54.0234L60.7812 55.0391L60.4688 55.5469L60 56.2891L59.6484 56.8359L59.0234 57.7734L58.5156 58.4766L58.125 59.0234L57.5 59.8438L57.2266 60.1953L56.9141 60.5859L56.7578 60.8203H77.1094L77.6953 60.9375L78.2031 61.1328L78.75 61.4844L79.2188 61.9141L79.5703 62.4219L79.8438 62.9688L79.9219 63.3203H80V64.8438H79.9219L79.8438 65.1953L79.5312 65.8203L79.1406 66.3281L78.8672 66.6016L78.3203 66.9531L77.8906 67.1484L77.3438 67.3047L76.9922 67.3438H2.92969L2.30469 67.2266L1.79688 67.0312L1.40625 66.7969L0.976562 66.4453L0.625 66.0547L0.3125 65.5469L0.117188 65.0781L0 64.7656V63.3984L0.273438 62.6953L0.585938 62.1484L1.01562 61.6797L1.32812 61.4062L1.875 61.0938L2.42188 60.8984L2.85156 60.8203L40.5078 60.7812L40.3516 60.5078L39.3359 59.1016L38.8672 58.4766L38.4766 57.9688L37.9688 57.3438L37.5 56.7969L37.1484 56.3672L36.5625 55.7422L36.0156 55.1562L35.1172 54.2578L34.8047 53.9844L34.2969 53.4766L33.9844 53.2031L33.6328 52.8516L33.3203 52.5781L32.6953 51.9922L32.0312 51.3672L31.7188 51.0547L31.6406 51.0156V50.9375L31.4844 50.8594L31.0938 50.4688L30.7812 50.1953L30.4688 49.8828L30.1562 49.6094L29.4922 48.9844L29.1406 48.6328L28.8281 48.3594L28.4766 48.0078L28.1641 47.7344L27.5391 47.1484L26.875 46.5234L26.5625 46.2109L26.25 45.9375L25.9766 45.6641L25.6641 45.3906L25.0391 44.8047L24.7266 44.4922L24.4141 44.2188L23.9844 43.7891L23.6719 43.5156L23.3594 43.2031L23.0469 42.9297L21.7578 41.7188L21.4844 41.4453L21.1719 41.1719L20.8203 40.8203L20.5078 40.5469L19.8438 39.9219L19.1797 39.4141L18.3594 38.9844L17.2656 38.5938L16.4844 38.3203L15.8984 38.0078L15.3516 37.5781L14.9609 37.1875L14.5703 36.6406L14.2578 36.0156L14.0625 35.4297L13.7891 34.0234L12.8516 28.9844L12.7734 28.3594L12.8125 27.8125L12.9688 27.2656L13.1641 26.875L13.4766 26.4453L13.8281 26.0938L14.3359 25.7812L14.8047 25.5859L15.4297 25.4688H15.8984L16.5234 25.5859L17.0703 25.8594L17.4609 26.1719L17.8125 26.5234L18.3203 27.2656L18.9453 28.1641L19.4531 28.9062L20.2734 30.0781L20.5859 30.5078L20.9766 31.0156L21.4453 31.5625L21.7969 31.9531L22.6953 32.8516L23.0078 33.125L23.7891 33.8281L24.1016 34.1016L24.4922 34.4531L25.0391 34.8438L25.7422 35.2734L26.3281 35.6641L27.0312 36.0938L27.6953 36.5234L29.2969 37.5391L30.2734 38.1641L31.0156 38.6328L33.4766 40.1953L35.9375 41.7578L37.5391 42.7734L40.8594 44.8828L45.0391 47.5391L46.0156 48.1641L46.7188 48.5938L46.875 48.5547L47.6172 47.8125L47.9688 47.3828L48.3984 46.7969L48.8281 46.0547L49.1406 45.3125L49.3359 44.7266L49.5312 43.9062L49.6484 43.125L49.6875 42.6562V40.625L49.5312 38.5547L49.4531 37.8125L48.8281 37.4609L47.8516 36.9531L46.9922 36.4844L45.7031 35.8203L44.8438 35.3516L43.5547 34.6875L42.6953 34.2188L41.4844 33.5938L39.8438 32.7344L38.9844 32.2656L37.7734 31.6406L37.1484 31.2891L36.875 31.0156L36.6797 30.625L36.6406 30.1953L36.7578 29.8047L36.9922 29.4531L37.1875 29.2969L37.5391 29.1406L37.6562 29.1016H38.0078L38.4375 29.2578L39.1016 29.6094L39.7266 29.9219L40.5859 30.3906L41.2109 30.7031L42.3047 31.2891L43.4375 31.875L44.2969 32.3438L44.8828 32.6562L45.5078 32.9688L46.4062 33.4375L47.2656 33.9062L48.3984 34.4922L49.1406 34.8828L50.4688 35.5859L51.3672 36.0547L52.2266 36.5234L53.4375 37.1484L54.2969 37.6172L55.1953 38.0469L55.5859 38.125H56.1328L56.6406 37.9688L57.1094 37.6953L57.4609 37.3438L57.7344 36.8359L57.8125 36.4844V35.7422L57.6953 35.3516L57.5 34.9609L57.1484 34.5703L56.7578 34.3359L55.7031 33.9062L54.6875 33.5156L53.0859 32.8906L46.6797 30.3906L39.5703 27.6172L38.3984 27.1875L37.2266 26.7969L36.1328 26.4844L34.5703 26.0938L32.7344 25.7422L31.6406 25.5859L31.5625 25.625L32.5391 26.1328L33.3984 26.6016L33.8281 26.875L34.0625 27.1875L34.1797 27.4609V28.0469L33.9844 28.4375L33.8281 28.6328L33.4375 28.8672L33.0469 28.9453L32.6953 28.9062L32.2266 28.7109L31.25 28.2031L30.3906 27.7344L29.1797 27.1094L28.3203 26.6406L27.5 26.2109L27.1875 25.9766L26.875 25.6641L26.6406 25.1953L26.5625 24.8438V24.5312L26.6797 24.0234L26.9141 23.5938L27.0703 23.3984L27.4219 23.125L27.7344 22.9688L28.0469 22.8906H28.8281L30.3906 23.0078L32.0703 23.2031L33.9844 23.5156L35.4688 23.8281L36.875 24.1797L37.9688 24.4922L39.375 24.9609L41.0547 25.5859L42.2266 26.0547L43.8281 26.6797L48.9453 28.6719L50.4297 29.2578L50.7422 29.375H50.8984L51.2109 28.9453L51.1328 28.75L50.7812 28.3594L50.3125 27.6953L49.9609 27.0703L49.6484 26.4062L49.375 25.5859L49.1797 24.6094L49.1016 23.7109V21.6797L49.1797 20.7812L49.3359 20L49.5703 19.2188L49.8828 18.4766L50.2344 17.8125L50.5469 17.3438L50.9375 16.8359L51.2891 16.4453L51.7969 15.9375L52.4609 15.4297L53.2031 14.9609L54.0234 14.5703L54.8438 14.2969L55.7031 14.1016L56.3281 14.0234H57.5781L58.4766 14.1406L59.2578 14.3359L59.8047 14.5312H59.9219L60.3125 13.9844L60.7812 13.5156L61.2891 13.1641L61.8359 12.8906L62.5 12.6953L63.2812 12.6172ZM62.9688 15.0391L62.5391 15.1953L62.1875 15.4688L61.9922 15.7422L62.0312 15.8984L62.4219 16.25L62.8906 16.7188L63.3984 17.3828L63.75 17.9297L64.0234 17.8906L64.3359 17.6562L64.6094 17.3438L64.7656 16.9531L64.8047 16.7578V16.25L64.6484 15.8203L64.375 15.4297L64.0234 15.1953L63.5938 15.0391H62.9688ZM56.4844 16.4062L55.7422 16.5234L54.9609 16.7578L54.3359 17.0703L53.7891 17.4219L53.4375 17.6953L53.2812 17.8125V17.8906L53.125 17.9688V18.0469H53.0469V18.125H52.9688L52.6172 18.5547L52.4219 18.8281L52.4609 18.9062L56.0156 18.9453L56.6016 19.0625L57.2266 19.3359L57.6562 19.6094L58.1641 20.0781L58.5156 20.5859L58.7891 21.1719L58.9453 21.7969L59.0234 22.5391L59.1406 22.8516L59.6094 23.3984L60.0391 23.8672L60.3125 24.1797L60.7812 24.7266L61.2109 25.1953L61.4844 25.5078L61.7969 25.8984H61.9141L62.1484 25.3516L62.3438 24.6484L62.4219 24.1797L62.4609 23.6328V21.7578L62.3828 20.9375L62.1875 20.1562L61.9141 19.4922L61.6016 18.9062L61.1328 18.2812L60.5078 17.6562L59.8438 17.1875L59.2578 16.875L58.5156 16.6016L58.0469 16.4844L57.5 16.4062H56.4844ZM51.5625 21.2891L51.5234 21.3281V24.1406L51.6406 24.8438L51.9141 25.6641L52.2266 26.2891L52.5391 26.7578L52.9688 27.2656L53.3594 27.6562L53.9453 28.0859L54.5703 28.4375L55.1172 28.6719L55.7812 28.8672L56.1719 28.9453L56.5625 28.9844H57.4609L58.2031 28.8672L58.8672 28.6719L59.7656 28.2422L60.3125 27.8516L60.2344 27.6562L59.7656 27.1484L59.4141 26.7188L58.9062 26.1719L58.5547 25.7422L58.0859 25.2344L57.8125 24.9219L57.4609 24.5312L57.1875 24.1406L56.875 23.5547L56.7188 23.0469L56.6406 22.5391L56.6016 22.0703L56.4453 21.7188L56.25 21.4844L55.9375 21.3281L55.7812 21.2891H51.5625ZM15.5469 27.8516L15.2734 28.0078L15.1953 28.125V28.4766L15.7812 31.6797L16.3672 34.8047L16.5625 35.3516L16.8359 35.7031L17.1484 35.9766L17.6172 36.2109L19.0234 36.6797L19.8047 37.0312L20.4688 37.4219L20.625 37.3828L21.875 36.0547L22.2266 35.7031L22.1484 35.5469L21.5625 35L21.25 34.7266L20.8594 34.375L19.7656 33.2812L19.4141 32.8516L18.9453 32.3047L17.9297 30.8984L17.5391 30.3125L17.2656 29.9219L16.8359 29.2969L16.2109 28.3984L15.8984 27.9688L15.7031 27.8516H15.5469ZM24.1406 37.1094L23.75 37.5L23.4766 37.8125L22.9297 38.3594L22.6562 38.6719L22.3438 38.9844L23.0469 39.6875L23.3594 39.9609L23.6719 40.2734H23.75V40.3516L24.0625 40.625L25.3516 41.8359L25.5469 42.0312H25.625L25.6641 42.1484L25.9766 42.4219L26.1719 42.6172H26.25V42.6953L26.5625 42.9688L26.9141 43.3203L27.2266 43.5938L27.5 43.8672L27.8125 44.1406L28.2031 44.5312L28.5156 44.8047L28.8281 45.1172L29.1406 45.3906L29.4141 45.6641L29.7266 45.9375L30.0781 46.2891L30.3906 46.5625L30.7031 46.875L31.0156 47.1484L31.3281 47.4609H31.4062V47.5391L31.7188 47.8125L32.0312 48.125L32.3438 48.3984L32.6562 48.7109L32.9688 48.9844L33.3203 49.3359L33.6328 49.6094L33.9453 49.9219L34.2578 50.1953L34.5703 50.5078L34.8828 50.7812L35.1562 51.0547L35.4688 51.3281L35.8594 51.7188L36.1719 51.9922L36.6406 52.4609H36.7188V52.5391L37.0312 52.8125L38.0078 53.7891L38.0469 53.8672H38.125L38.2031 54.0234L38.6328 54.4531L38.9062 54.7656L39.2578 55.1562L39.6094 55.5859L40.0391 56.0938L40.5469 56.7578L41.0938 57.4609L42.1094 58.8672L42.7344 59.7656L43.2031 60.3906L43.5938 60.7422L43.7109 60.8203H53.5938L53.9062 60.5078L54.2578 60.0781L54.2969 59.9609H54.375L54.8047 59.4141L55.3125 58.7891L55.7422 58.2422L56.2891 57.5L56.6016 57.0703L56.6797 56.875L56.6406 56.8359L54.9219 56.5234L53.5938 56.2109L52.5781 55.8984L51.7188 55.5859L50.7422 55.1562L49.8438 54.6484L49.2578 54.2578L48.7891 53.9062L48.2812 53.4766L47.8906 53.125L47.1875 52.4219L46.8359 51.9922L46.4453 51.5234L46.0547 51.0156L45.3906 50.5859L44.5312 50.0391L43.5938 49.4531L42.9297 49.0234L41.4453 48.0859L40.7812 47.6562L39.2969 46.7188L38.4375 46.1719L37.7734 45.7422L37.1484 45.3516L34.6875 43.7891L30.5078 41.1328L28.9062 40.1172L26.4453 38.5547L24.7266 37.4609L24.1797 37.1094H24.1406ZM3.04688 63.2031L2.77344 63.3203L2.53906 63.5156L2.38281 63.8281L2.34375 64.1016L2.46094 64.4922L2.69531 64.8047L3.04688 64.9609H76.9141L77.2266 64.8438L77.4219 64.6875L77.6172 64.2969V63.8281L77.3828 63.4375L77.1094 63.2422L76.9922 63.2031H3.04688Z" fill="#FFBB00"/>
</svg>
