<svg width="305" height="58" viewBox="0 0 305 58" fill="none" xmlns="http://www.w3.org/2000/svg">
<path d="M93.6912 50.8715H99.7194V53.2058H93.6912V50.8715ZM93.9065 57.7845H91V45.2155H100.491V47.5497H93.9065V57.7845Z" fill="url(#paint0_linear_43_44)"/>
<path d="M107.482 57.7845V45.2155H110.389V57.7845H107.482Z" fill="url(#paint1_linear_43_44)"/>
<path d="M120.994 57.7845V47.5856H116.975V45.2155H127.919V47.5856H123.901V57.7845H120.994Z" fill="url(#paint2_linear_43_44)"/>
<path d="M134.507 57.7845V45.2155H136.911L144.321 54.2652H143.155V45.2155H146.025V57.7845H143.639L136.211 48.7348H137.377V57.7845H134.507Z" fill="url(#paint3_linear_43_44)"/>
<path d="M156.693 50.279H162.74V52.5414H156.693V50.279ZM156.909 55.4503H163.744V57.7845H154.02V45.2155H163.511V47.5497H156.909V55.4503Z" fill="url(#paint4_linear_43_44)"/>
<path d="M175.207 58C174.202 58 173.239 57.8683 172.318 57.605C171.397 57.3296 170.656 56.9765 170.094 56.5456L171.08 54.355C171.619 54.738 172.253 55.0552 172.982 55.3066C173.724 55.546 174.471 55.6657 175.225 55.6657C175.799 55.6657 176.259 55.6119 176.606 55.5041C176.965 55.3844 177.228 55.2228 177.396 55.0193C177.563 54.8158 177.647 54.5824 177.647 54.3191C177.647 53.9839 177.515 53.7205 177.252 53.529C176.989 53.3255 176.642 53.1639 176.212 53.0442C175.781 52.9125 175.303 52.7928 174.776 52.6851C174.262 52.5654 173.742 52.4217 173.215 52.2541C172.701 52.0866 172.229 51.8711 171.798 51.6077C171.367 51.3444 171.015 50.9972 170.739 50.5663C170.476 50.1354 170.345 49.5847 170.345 48.9144C170.345 48.1961 170.536 47.5437 170.919 46.9572C171.314 46.3587 171.9 45.8858 172.677 45.5387C173.467 45.1796 174.453 45 175.637 45C176.427 45 177.204 45.0958 177.97 45.2873C178.735 45.4669 179.411 45.7422 179.997 46.1133L179.1 48.3218C178.514 47.9866 177.928 47.7413 177.342 47.5856C176.756 47.418 176.182 47.3343 175.619 47.3343C175.057 47.3343 174.597 47.4001 174.238 47.5318C173.879 47.6634 173.622 47.837 173.467 48.0525C173.311 48.256 173.233 48.4954 173.233 48.7707C173.233 49.0939 173.365 49.3573 173.628 49.5608C173.891 49.7523 174.238 49.9079 174.669 50.0276C175.099 50.1473 175.572 50.267 176.086 50.3867C176.612 50.5064 177.133 50.6441 177.647 50.7997C178.173 50.9553 178.652 51.1648 179.082 51.4282C179.513 51.6915 179.86 52.0387 180.123 52.4696C180.398 52.9006 180.535 53.4452 180.535 54.1036C180.535 54.8099 180.338 55.4563 179.943 56.0428C179.549 56.6294 178.957 57.1022 178.167 57.4613C177.39 57.8204 176.403 58 175.207 58Z" fill="url(#paint5_linear_43_44)"/>
<path d="M191.671 58C190.667 58 189.704 57.8683 188.783 57.605C187.862 57.3296 187.12 56.9765 186.558 56.5456L187.545 54.355C188.083 54.738 188.717 55.0552 189.447 55.3066C190.188 55.546 190.936 55.6657 191.689 55.6657C192.264 55.6657 192.724 55.6119 193.071 55.5041C193.43 55.3844 193.693 55.2228 193.86 55.0193C194.028 54.8158 194.111 54.5824 194.111 54.3191C194.111 53.9839 193.98 53.7205 193.717 53.529C193.454 53.3255 193.107 53.1639 192.676 53.0442C192.246 52.9125 191.767 52.7928 191.241 52.6851C190.727 52.5654 190.206 52.4217 189.68 52.2541C189.166 52.0866 188.693 51.8711 188.263 51.6077C187.832 51.3444 187.479 50.9972 187.204 50.5663C186.941 50.1354 186.809 49.5847 186.809 48.9144C186.809 48.1961 187.001 47.5437 187.383 46.9572C187.778 46.3587 188.364 45.8858 189.142 45.5387C189.931 45.1796 190.918 45 192.102 45C192.891 45 193.669 45.0958 194.434 45.2873C195.2 45.4669 195.876 45.7422 196.462 46.1133L195.565 48.3218C194.979 47.9866 194.393 47.7413 193.806 47.5856C193.22 47.418 192.646 47.3343 192.084 47.3343C191.522 47.3343 191.061 47.4001 190.703 47.5318C190.344 47.6634 190.087 47.837 189.931 48.0525C189.776 48.256 189.698 48.4954 189.698 48.7707C189.698 49.0939 189.829 49.3573 190.093 49.5608C190.356 49.7523 190.703 49.9079 191.133 50.0276C191.564 50.1473 192.036 50.267 192.551 50.3867C193.077 50.5064 193.597 50.6441 194.111 50.7997C194.638 50.9553 195.116 51.1648 195.547 51.4282C195.977 51.6915 196.324 52.0387 196.587 52.4696C196.862 52.9006 197 53.4452 197 54.1036C197 54.8099 196.803 55.4563 196.408 56.0428C196.013 56.6294 195.421 57.1022 194.632 57.4613C193.854 57.8204 192.868 58 191.671 58Z" fill="url(#paint6_linear_43_44)"/>
<path d="M259 1.59277H239.5L233.5 7.5187L226.5 26.4817L231 33.0002H253L260 24.7039L264 6.33351L259 1.59277Z" fill="white" stroke="white"/>
<path d="M261 33L271 1H280L288.5 18.7778L294 1H304L296 27.0741L292.5 33H284L277 15.8148L271 33H261Z" fill="white" stroke="white"/>
<path d="M124 1.59277H115.5L107.5 27.6668L112 32.4076H132.5L134 25.2965H119L124 1.59277Z" fill="white" stroke="white"/>
<path d="M137 27.0744L145.5 2.18555H154.5L148.5 24.1115H162.5L169 2.18555H178.5L170.5 27.0744L161 33.0004H139L137 27.0744Z" fill="white" stroke="white"/>
<path d="M180.5 9.88925L182.5 2.18555H213.5L212 9.88925H201L194.5 30.63L190.5 32.4078H184L190.5 9.88925H180.5Z" fill="white" stroke="white"/>
<path d="M218.5 4.55574L224 1.59277H229V4.55574L218.5 33.0002H210.5L218.5 4.55574Z" fill="white" stroke="white"/>
<path d="M79 5.14833L85 1.59277H104.5L108.5 7.5187L103 26.4817L96 32.4076H75L71 26.4817L79 5.14833Z" fill="white" stroke="white"/>
<path d="M50.5 1.59277H40.5H39.5L38 28.852L40.5 33.0002L56.5 32.4076L65.5 24.7039L75 1.59277H65.5L53.5 24.7039H48L50.5 1.59277Z" fill="white" stroke="white"/>
<path d="M2 24.7039L8 1.59277H37L34.5 9.29648H15.5L14.5 14.0372H32.5L30 20.5557H12V24.7039H30L27 33.0002L5 32.4076L1 28.2594L2 24.7039Z" fill="white" stroke="white"/>
<path d="M98 9.2959H88L83 24.1107H94.5L98 9.2959Z" fill="black" stroke="#111111"/>
<path d="M253 9.2959H243L238 24.1107H249.5L253 9.2959Z" fill="black" stroke="#111111"/>
<defs>
<linearGradient id="paint0_linear_43_44" x1="144" y1="45" x2="144" y2="58" gradientUnits="userSpaceOnUse">
<stop stop-color="#FFBF00"/>
<stop offset="1" stop-color="#F2A50C"/>
</linearGradient>
<linearGradient id="paint1_linear_43_44" x1="144" y1="45" x2="144" y2="58" gradientUnits="userSpaceOnUse">
<stop stop-color="#FFBF00"/>
<stop offset="1" stop-color="#F2A50C"/>
</linearGradient>
<linearGradient id="paint2_linear_43_44" x1="144" y1="45" x2="144" y2="58" gradientUnits="userSpaceOnUse">
<stop stop-color="#FFBF00"/>
<stop offset="1" stop-color="#F2A50C"/>
</linearGradient>
<linearGradient id="paint3_linear_43_44" x1="144" y1="45" x2="144" y2="58" gradientUnits="userSpaceOnUse">
<stop stop-color="#FFBF00"/>
<stop offset="1" stop-color="#F2A50C"/>
</linearGradient>
<linearGradient id="paint4_linear_43_44" x1="144" y1="45" x2="144" y2="58" gradientUnits="userSpaceOnUse">
<stop stop-color="#FFBF00"/>
<stop offset="1" stop-color="#F2A50C"/>
</linearGradient>
<linearGradient id="paint5_linear_43_44" x1="144" y1="45" x2="144" y2="58" gradientUnits="userSpaceOnUse">
<stop stop-color="#FFBF00"/>
<stop offset="1" stop-color="#F2A50C"/>
</linearGradient>
<linearGradient id="paint6_linear_43_44" x1="144" y1="45" x2="144" y2="58" gradientUnits="userSpaceOnUse">
<stop stop-color="#FFBF00"/>
<stop offset="1" stop-color="#F2A50C"/>
</linearGradient>
</defs>
</svg>
